<?xml version="1.0" standalone="no"?>
<!DOCTYPE svg PUBLIC "-//W3C//DTD SVG 20010904//EN"
 "http://www.w3.org/TR/2001/REC-SVG-20010904/DTD/svg10.dtd">
<svg version="1.0" xmlns="http://www.w3.org/2000/svg"
 width="700.000000pt" height="700.000000pt" viewBox="0 0 700.000000 700.000000"
 preserveAspectRatio="xMidYMid meet">
<metadata>
Created by potrace 1.11, written by Peter Selinger 2001-2013
</metadata>
<g transform="translate(0.000000,700.000000) scale(0.100000,-0.100000)"
fill="#000000" stroke="none">
<path d="M3379 6646 c-2 -2 -26 -6 -54 -9 -109 -11 -236 -48 -353 -103 -41
-19 -76 -34 -79 -34 -2 0 -48 -29 -101 -64 -117 -78 -242 -192 -311 -285 -49
-66 -74 -87 -91 -76 -23 14 -272 22 -330 10 -14 -3 -50 -10 -82 -15 -79 -15
-190 -54 -273 -97 -66 -34 -177 -104 -201 -127 -6 -6 -28 -27 -50 -46 -51 -46
-132 -142 -174 -205 -18 -27 -34 -51 -35 -53 -3 -4 -35 -9 -105 -17 -53 -5
-69 -9 -170 -42 -225 -73 -433 -264 -538 -494 -16 -35 -33 -77 -37 -94 -4 -16
-9 -34 -11 -40 -27 -89 -38 -305 -21 -405 25 -138 100 -303 191 -415 161 -198
378 -316 628 -342 l56 -6 48 -70 c62 -91 191 -222 275 -280 142 -99 306 -166
463 -193 79 -13 292 -13 366 1 33 6 37 3 68 -44 38 -57 155 -179 227 -238 52
-42 145 -104 205 -136 19 -11 36 -20 38 -22 3 -2 -231 -945 -255 -1023 l-15
-54 -37 7 c-20 4 -49 9 -66 11 -57 9 -280 54 -315 65 -19 5 -46 12 -60 15
-105 21 -323 111 -388 160 -38 30 -40 43 -9 72 23 22 177 102 196 102 6 0 19
5 29 10 23 14 238 74 342 95 47 10 86 19 87 19 7 5 90 352 86 359 -3 5 -24 6
-47 2 -22 -4 -57 -9 -76 -12 -19 -3 -73 -14 -120 -24 -47 -11 -96 -22 -110
-25 -165 -34 -417 -131 -540 -209 -77 -49 -159 -135 -192 -203 -29 -58 -33
-76 -33 -147 0 -66 5 -90 27 -137 98 -209 421 -368 953 -467 61 -11 128 -23
150 -26 22 -3 69 -10 105 -15 75 -10 148 -18 350 -35 198 -18 682 -24 866 -11
145 10 237 17 269 20 115 12 169 18 235 27 41 5 91 12 110 14 150 20 399 77
550 126 296 96 479 218 548 367 38 81 38 193 1 273 -88 188 -348 331 -786 432
-161 38 -301 63 -308 55 -2 -2 0 -21 6 -42 6 -21 12 -46 14 -55 10 -46 65
-264 67 -266 2 -1 41 -9 88 -19 117 -25 307 -80 396 -116 84 -33 182 -93 191
-115 27 -71 -358 -216 -742 -281 -16 -2 -56 -9 -89 -15 -63 -11 -72 -8 -80 31
-2 14 -9 45 -16 70 -6 25 -15 61 -19 80 -5 19 -16 64 -26 100 -9 36 -19 74
-21 85 -2 11 -15 65 -29 120 -14 55 -28 108 -30 118 -2 10 -7 27 -10 37 -3 10
-8 27 -10 37 -11 53 -37 162 -45 188 -22 69 -49 198 -44 206 3 5 11 9 18 9 7
0 60 31 117 69 113 75 271 223 329 309 l35 52 55 -8 c120 -16 310 -8 422 17
250 57 528 250 662 460 l44 68 68 6 c340 32 653 280 771 612 75 211 64 482
-27 681 -68 147 -161 265 -282 357 -155 117 -290 169 -496 191 -18 2 -34 5
-36 7 -2 2 -15 23 -30 47 -34 54 -124 161 -182 215 -136 125 -346 233 -524
268 -93 18 -102 19 -215 19 -102 1 -144 -2 -202 -14 -19 -4 -33 9 -82 72 -188
247 -483 424 -797 481 -86 15 -333 27 -345 17z"/>
<path d="M2471 863 c-12 -48 -26 -101 -31 -118 -5 -16 -19 -70 -30 -120 -24
-102 -19 -122 33 -147 59 -28 221 -68 337 -83 25 -3 56 -8 70 -10 14 -3 52 -7
85 -9 33 -3 103 -8 155 -12 122 -11 660 -11 810 -1 106 7 217 18 330 33 97 12
267 55 317 79 59 29 70 51 54 104 -9 32 -70 271 -75 296 -1 6 -6 25 -10 43 -9
37 2 36 -161 12 -61 -9 -116 -15 -240 -25 -38 -4 -81 -8 -94 -10 -45 -8 -375
-19 -541 -18 -141 0 -351 8 -480 18 -143 11 -219 17 -240 20 -14 2 -47 7 -75
10 -27 3 -61 8 -75 10 -14 3 -46 7 -71 10 l-46 6 -22 -88z"/>
</g>
</svg>
